<mxfile host="65bd71144e">
    <diagram name="Page-1" id="gWpyg2ncitacB2t3oJ9B">
        <mxGraphModel dx="308" dy="887" grid="1" gridSize="10" guides="1" tooltips="1" connect="1" arrows="1" fold="1" page="1" pageScale="1" pageWidth="850" pageHeight="1100" math="0" shadow="0">
            <root>
                <mxCell id="0"/>
                <mxCell id="1" parent="0"/>
                <mxCell id="94" value="Row X6" style="rounded=1;whiteSpace=wrap;html=1;labelPosition=center;verticalLabelPosition=bottom;align=center;verticalAlign=top;" parent="1" vertex="1">
                    <mxGeometry x="410" y="20" width="410" height="520" as="geometry"/>
                </mxCell>
                <mxCell id="vW4JjazZONKJVkMiwBjb-2" value="Microcontroller" style="rounded=1;whiteSpace=wrap;html=1;" parent="1" vertex="1">
                    <mxGeometry x="160" y="40" width="120" height="498" as="geometry"/>
                </mxCell>
                <mxCell id="43" value="" style="group" parent="1" vertex="1" connectable="0">
                    <mxGeometry x="480" y="40" width="320" height="74" as="geometry"/>
                </mxCell>
                <mxCell id="vW4JjazZONKJVkMiwBjb-8" value="" style="group" parent="43" vertex="1" connectable="0">
                    <mxGeometry x="200" y="10" width="120" height="60" as="geometry"/>
                </mxCell>
                <mxCell id="vW4JjazZONKJVkMiwBjb-5" value="" style="shape=image;html=1;verticalAlign=top;verticalLabelPosition=bottom;labelBackgroundColor=#ffffff;imageAspect=0;aspect=fixed;image=https://cdn4.iconfinder.com/data/icons/essential-app-2/16/volume-sound-speaker-lound-128.png" parent="vW4JjazZONKJVkMiwBjb-8" vertex="1">
                    <mxGeometry x="80" y="10" width="40" height="40" as="geometry"/>
                </mxCell>
                <mxCell id="vW4JjazZONKJVkMiwBjb-7" style="edgeStyle=orthogonalEdgeStyle;rounded=0;orthogonalLoop=1;jettySize=auto;html=1;" parent="vW4JjazZONKJVkMiwBjb-8" source="vW4JjazZONKJVkMiwBjb-6" target="vW4JjazZONKJVkMiwBjb-5" edge="1">
                    <mxGeometry relative="1" as="geometry"/>
                </mxCell>
                <mxCell id="vW4JjazZONKJVkMiwBjb-6" value="MOSFET Driver" style="rounded=1;whiteSpace=wrap;html=1;" parent="vW4JjazZONKJVkMiwBjb-8" vertex="1">
                    <mxGeometry width="65" height="60" as="geometry"/>
                </mxCell>
                <mxCell id="26" value="Mux" style="shadow=0;dashed=0;align=center;html=1;strokeWidth=1;shape=mxgraph.electrical.abstract.mux2;flipV=0;" parent="43" vertex="1">
                    <mxGeometry x="20" y="14" width="60" height="60" as="geometry"/>
                </mxCell>
                <mxCell id="28" style="edgeStyle=none;html=1;exitX=1;exitY=0.5;exitDx=0;exitDy=-5;entryX=0;entryY=0.25;entryDx=0;entryDy=0;exitPerimeter=0;" parent="43" source="26" edge="1">
                    <mxGeometry relative="1" as="geometry">
                        <mxPoint x="100" y="39" as="targetPoint"/>
                    </mxGeometry>
                </mxCell>
                <mxCell id="40" style="edgeStyle=none;rounded=0;html=1;entryX=0;entryY=0.5;entryDx=0;entryDy=0;" parent="43" source="39" target="vW4JjazZONKJVkMiwBjb-6" edge="1">
                    <mxGeometry relative="1" as="geometry"/>
                </mxCell>
                <mxCell id="42" style="edgeStyle=none;rounded=0;html=1;exitX=1;exitY=0.5;exitDx=0;exitDy=0;entryX=0;entryY=0.18333333333333332;entryDx=0;entryDy=3;entryPerimeter=0;" parent="43" source="39" target="26" edge="1">
                    <mxGeometry relative="1" as="geometry">
                        <mxPoint x="50" y="-10" as="targetPoint"/>
                        <Array as="points">
                            <mxPoint x="180" y="40"/>
                            <mxPoint x="180"/>
                            <mxPoint/>
                            <mxPoint y="28"/>
                        </Array>
                    </mxGeometry>
                </mxCell>
                <mxCell id="39" value="Shift Register" style="rounded=1;whiteSpace=wrap;html=1;" parent="43" vertex="1">
                    <mxGeometry x="100" y="10" width="70" height="60" as="geometry"/>
                </mxCell>
                <mxCell id="44" value="" style="group" parent="1" vertex="1" connectable="0">
                    <mxGeometry x="480" y="120" width="320" height="74" as="geometry"/>
                </mxCell>
                <mxCell id="45" value="" style="group" parent="44" vertex="1" connectable="0">
                    <mxGeometry x="200" y="10" width="120" height="60" as="geometry"/>
                </mxCell>
                <mxCell id="46" value="" style="shape=image;html=1;verticalAlign=top;verticalLabelPosition=bottom;labelBackgroundColor=#ffffff;imageAspect=0;aspect=fixed;image=https://cdn4.iconfinder.com/data/icons/essential-app-2/16/volume-sound-speaker-lound-128.png" parent="45" vertex="1">
                    <mxGeometry x="80" y="10" width="40" height="40" as="geometry"/>
                </mxCell>
                <mxCell id="47" style="edgeStyle=orthogonalEdgeStyle;rounded=0;orthogonalLoop=1;jettySize=auto;html=1;" parent="45" source="48" target="46" edge="1">
                    <mxGeometry relative="1" as="geometry"/>
                </mxCell>
                <mxCell id="48" value="MOSFET Driver" style="rounded=1;whiteSpace=wrap;html=1;" parent="45" vertex="1">
                    <mxGeometry width="65" height="60" as="geometry"/>
                </mxCell>
                <mxCell id="49" value="Mux" style="shadow=0;dashed=0;align=center;html=1;strokeWidth=1;shape=mxgraph.electrical.abstract.mux2;flipV=0;" parent="44" vertex="1">
                    <mxGeometry x="20" y="14" width="60" height="60" as="geometry"/>
                </mxCell>
                <mxCell id="50" style="edgeStyle=none;html=1;exitX=1;exitY=0.5;exitDx=0;exitDy=-5;entryX=0;entryY=0.25;entryDx=0;entryDy=0;exitPerimeter=0;" parent="44" source="49" edge="1">
                    <mxGeometry relative="1" as="geometry">
                        <mxPoint x="100" y="39" as="targetPoint"/>
                    </mxGeometry>
                </mxCell>
                <mxCell id="51" style="edgeStyle=none;rounded=0;html=1;entryX=0;entryY=0.5;entryDx=0;entryDy=0;" parent="44" source="53" target="48" edge="1">
                    <mxGeometry relative="1" as="geometry"/>
                </mxCell>
                <mxCell id="52" style="edgeStyle=none;rounded=0;html=1;exitX=1;exitY=0.5;exitDx=0;exitDy=0;entryX=0;entryY=0.18333333333333332;entryDx=0;entryDy=3;entryPerimeter=0;" parent="44" source="53" target="49" edge="1">
                    <mxGeometry relative="1" as="geometry">
                        <mxPoint x="50" y="-10" as="targetPoint"/>
                        <Array as="points">
                            <mxPoint x="180" y="40"/>
                            <mxPoint x="180"/>
                            <mxPoint/>
                            <mxPoint y="28"/>
                        </Array>
                    </mxGeometry>
                </mxCell>
                <mxCell id="53" value="Shift Register" style="rounded=1;whiteSpace=wrap;html=1;" parent="44" vertex="1">
                    <mxGeometry x="100" y="10" width="70" height="60" as="geometry"/>
                </mxCell>
                <mxCell id="54" value="" style="group" parent="1" vertex="1" connectable="0">
                    <mxGeometry x="480" y="200" width="320" height="74" as="geometry"/>
                </mxCell>
                <mxCell id="55" value="" style="group" parent="54" vertex="1" connectable="0">
                    <mxGeometry x="200" y="10" width="120" height="60" as="geometry"/>
                </mxCell>
                <mxCell id="56" value="" style="shape=image;html=1;verticalAlign=top;verticalLabelPosition=bottom;labelBackgroundColor=#ffffff;imageAspect=0;aspect=fixed;image=https://cdn4.iconfinder.com/data/icons/essential-app-2/16/volume-sound-speaker-lound-128.png" parent="55" vertex="1">
                    <mxGeometry x="80" y="10" width="40" height="40" as="geometry"/>
                </mxCell>
                <mxCell id="57" style="edgeStyle=orthogonalEdgeStyle;rounded=0;orthogonalLoop=1;jettySize=auto;html=1;" parent="55" source="58" target="56" edge="1">
                    <mxGeometry relative="1" as="geometry"/>
                </mxCell>
                <mxCell id="58" value="MOSFET Driver" style="rounded=1;whiteSpace=wrap;html=1;" parent="55" vertex="1">
                    <mxGeometry width="65" height="60" as="geometry"/>
                </mxCell>
                <mxCell id="59" value="Mux" style="shadow=0;dashed=0;align=center;html=1;strokeWidth=1;shape=mxgraph.electrical.abstract.mux2;flipV=0;" parent="54" vertex="1">
                    <mxGeometry x="20" y="14" width="60" height="60" as="geometry"/>
                </mxCell>
                <mxCell id="60" style="edgeStyle=none;html=1;exitX=1;exitY=0.5;exitDx=0;exitDy=-5;entryX=0;entryY=0.25;entryDx=0;entryDy=0;exitPerimeter=0;" parent="54" source="59" edge="1">
                    <mxGeometry relative="1" as="geometry">
                        <mxPoint x="100" y="39" as="targetPoint"/>
                    </mxGeometry>
                </mxCell>
                <mxCell id="61" style="edgeStyle=none;rounded=0;html=1;entryX=0;entryY=0.5;entryDx=0;entryDy=0;" parent="54" source="63" target="58" edge="1">
                    <mxGeometry relative="1" as="geometry"/>
                </mxCell>
                <mxCell id="62" style="edgeStyle=none;rounded=0;html=1;exitX=1;exitY=0.5;exitDx=0;exitDy=0;entryX=0;entryY=0.18333333333333332;entryDx=0;entryDy=3;entryPerimeter=0;" parent="54" source="63" target="59" edge="1">
                    <mxGeometry relative="1" as="geometry">
                        <mxPoint x="50" y="-10" as="targetPoint"/>
                        <Array as="points">
                            <mxPoint x="180" y="40"/>
                            <mxPoint x="180"/>
                            <mxPoint/>
                            <mxPoint y="28"/>
                        </Array>
                    </mxGeometry>
                </mxCell>
                <mxCell id="63" value="Shift Register" style="rounded=1;whiteSpace=wrap;html=1;" parent="54" vertex="1">
                    <mxGeometry x="100" y="10" width="70" height="60" as="geometry"/>
                </mxCell>
                <mxCell id="64" value="" style="group" parent="1" vertex="1" connectable="0">
                    <mxGeometry x="480" y="280" width="320" height="74" as="geometry"/>
                </mxCell>
                <mxCell id="65" value="" style="group" parent="64" vertex="1" connectable="0">
                    <mxGeometry x="200" y="10" width="120" height="60" as="geometry"/>
                </mxCell>
                <mxCell id="66" value="" style="shape=image;html=1;verticalAlign=top;verticalLabelPosition=bottom;labelBackgroundColor=#ffffff;imageAspect=0;aspect=fixed;image=https://cdn4.iconfinder.com/data/icons/essential-app-2/16/volume-sound-speaker-lound-128.png" parent="65" vertex="1">
                    <mxGeometry x="80" y="10" width="40" height="40" as="geometry"/>
                </mxCell>
                <mxCell id="67" style="edgeStyle=orthogonalEdgeStyle;rounded=0;orthogonalLoop=1;jettySize=auto;html=1;" parent="65" source="68" target="66" edge="1">
                    <mxGeometry relative="1" as="geometry"/>
                </mxCell>
                <mxCell id="68" value="MOSFET Driver" style="rounded=1;whiteSpace=wrap;html=1;" parent="65" vertex="1">
                    <mxGeometry width="65" height="60" as="geometry"/>
                </mxCell>
                <mxCell id="69" value="Mux" style="shadow=0;dashed=0;align=center;html=1;strokeWidth=1;shape=mxgraph.electrical.abstract.mux2;flipV=0;" parent="64" vertex="1">
                    <mxGeometry x="20" y="14" width="60" height="60" as="geometry"/>
                </mxCell>
                <mxCell id="70" style="edgeStyle=none;html=1;exitX=1;exitY=0.5;exitDx=0;exitDy=-5;entryX=0;entryY=0.25;entryDx=0;entryDy=0;exitPerimeter=0;" parent="64" source="69" edge="1">
                    <mxGeometry relative="1" as="geometry">
                        <mxPoint x="100" y="39" as="targetPoint"/>
                    </mxGeometry>
                </mxCell>
                <mxCell id="71" style="edgeStyle=none;rounded=0;html=1;entryX=0;entryY=0.5;entryDx=0;entryDy=0;" parent="64" source="73" target="68" edge="1">
                    <mxGeometry relative="1" as="geometry"/>
                </mxCell>
                <mxCell id="72" style="edgeStyle=none;rounded=0;html=1;exitX=1;exitY=0.5;exitDx=0;exitDy=0;entryX=0;entryY=0.18333333333333332;entryDx=0;entryDy=3;entryPerimeter=0;" parent="64" source="73" target="69" edge="1">
                    <mxGeometry relative="1" as="geometry">
                        <mxPoint x="50" y="-10" as="targetPoint"/>
                        <Array as="points">
                            <mxPoint x="180" y="40"/>
                            <mxPoint x="180"/>
                            <mxPoint/>
                            <mxPoint y="28"/>
                        </Array>
                    </mxGeometry>
                </mxCell>
                <mxCell id="73" value="Shift Register" style="rounded=1;whiteSpace=wrap;html=1;" parent="64" vertex="1">
                    <mxGeometry x="100" y="10" width="70" height="60" as="geometry"/>
                </mxCell>
                <mxCell id="74" value="" style="group" parent="1" vertex="1" connectable="0">
                    <mxGeometry x="480" y="360" width="320" height="74" as="geometry"/>
                </mxCell>
                <mxCell id="75" value="" style="group" parent="74" vertex="1" connectable="0">
                    <mxGeometry x="200" y="10" width="120" height="60" as="geometry"/>
                </mxCell>
                <mxCell id="76" value="" style="shape=image;html=1;verticalAlign=top;verticalLabelPosition=bottom;labelBackgroundColor=#ffffff;imageAspect=0;aspect=fixed;image=https://cdn4.iconfinder.com/data/icons/essential-app-2/16/volume-sound-speaker-lound-128.png" parent="75" vertex="1">
                    <mxGeometry x="80" y="10" width="40" height="40" as="geometry"/>
                </mxCell>
                <mxCell id="77" style="edgeStyle=orthogonalEdgeStyle;rounded=0;orthogonalLoop=1;jettySize=auto;html=1;" parent="75" source="78" target="76" edge="1">
                    <mxGeometry relative="1" as="geometry"/>
                </mxCell>
                <mxCell id="78" value="MOSFET Driver" style="rounded=1;whiteSpace=wrap;html=1;" parent="75" vertex="1">
                    <mxGeometry width="65" height="60" as="geometry"/>
                </mxCell>
                <mxCell id="79" value="Mux" style="shadow=0;dashed=0;align=center;html=1;strokeWidth=1;shape=mxgraph.electrical.abstract.mux2;flipV=0;" parent="74" vertex="1">
                    <mxGeometry x="20" y="14" width="60" height="60" as="geometry"/>
                </mxCell>
                <mxCell id="80" style="edgeStyle=none;html=1;exitX=1;exitY=0.5;exitDx=0;exitDy=-5;entryX=0;entryY=0.25;entryDx=0;entryDy=0;exitPerimeter=0;" parent="74" source="79" edge="1">
                    <mxGeometry relative="1" as="geometry">
                        <mxPoint x="100" y="39" as="targetPoint"/>
                    </mxGeometry>
                </mxCell>
                <mxCell id="81" style="edgeStyle=none;rounded=0;html=1;entryX=0;entryY=0.5;entryDx=0;entryDy=0;" parent="74" source="83" target="78" edge="1">
                    <mxGeometry relative="1" as="geometry"/>
                </mxCell>
                <mxCell id="82" style="edgeStyle=none;rounded=0;html=1;exitX=1;exitY=0.5;exitDx=0;exitDy=0;entryX=0;entryY=0.18333333333333332;entryDx=0;entryDy=3;entryPerimeter=0;" parent="74" source="83" target="79" edge="1">
                    <mxGeometry relative="1" as="geometry">
                        <mxPoint x="50" y="-10" as="targetPoint"/>
                        <Array as="points">
                            <mxPoint x="180" y="40"/>
                            <mxPoint x="180"/>
                            <mxPoint/>
                            <mxPoint y="28"/>
                        </Array>
                    </mxGeometry>
                </mxCell>
                <mxCell id="83" value="Shift Register" style="rounded=1;whiteSpace=wrap;html=1;" parent="74" vertex="1">
                    <mxGeometry x="100" y="10" width="70" height="60" as="geometry"/>
                </mxCell>
                <mxCell id="84" value="" style="group" parent="1" vertex="1" connectable="0">
                    <mxGeometry x="480" y="440" width="320" height="74" as="geometry"/>
                </mxCell>
                <mxCell id="85" value="" style="group" parent="84" vertex="1" connectable="0">
                    <mxGeometry x="200" y="10" width="120" height="60" as="geometry"/>
                </mxCell>
                <mxCell id="86" value="" style="shape=image;html=1;verticalAlign=top;verticalLabelPosition=bottom;labelBackgroundColor=#ffffff;imageAspect=0;aspect=fixed;image=https://cdn4.iconfinder.com/data/icons/essential-app-2/16/volume-sound-speaker-lound-128.png" parent="85" vertex="1">
                    <mxGeometry x="80" y="10" width="40" height="40" as="geometry"/>
                </mxCell>
                <mxCell id="87" style="edgeStyle=orthogonalEdgeStyle;rounded=0;orthogonalLoop=1;jettySize=auto;html=1;" parent="85" source="88" target="86" edge="1">
                    <mxGeometry relative="1" as="geometry"/>
                </mxCell>
                <mxCell id="88" value="MOSFET Driver" style="rounded=1;whiteSpace=wrap;html=1;" parent="85" vertex="1">
                    <mxGeometry width="65" height="60" as="geometry"/>
                </mxCell>
                <mxCell id="89" value="Mux" style="shadow=0;dashed=0;align=center;html=1;strokeWidth=1;shape=mxgraph.electrical.abstract.mux2;flipV=0;" parent="84" vertex="1">
                    <mxGeometry x="20" y="14" width="60" height="60" as="geometry"/>
                </mxCell>
                <mxCell id="90" style="edgeStyle=none;html=1;exitX=1;exitY=0.5;exitDx=0;exitDy=-5;entryX=0;entryY=0.25;entryDx=0;entryDy=0;exitPerimeter=0;" parent="84" source="89" edge="1">
                    <mxGeometry relative="1" as="geometry">
                        <mxPoint x="100" y="39" as="targetPoint"/>
                    </mxGeometry>
                </mxCell>
                <mxCell id="91" style="edgeStyle=none;rounded=0;html=1;entryX=0;entryY=0.5;entryDx=0;entryDy=0;" parent="84" source="93" target="88" edge="1">
                    <mxGeometry relative="1" as="geometry"/>
                </mxCell>
                <mxCell id="92" style="edgeStyle=none;rounded=0;html=1;exitX=1;exitY=0.5;exitDx=0;exitDy=0;entryX=0;entryY=0.18333333333333332;entryDx=0;entryDy=3;entryPerimeter=0;" parent="84" source="93" target="89" edge="1">
                    <mxGeometry relative="1" as="geometry">
                        <mxPoint x="50" y="-10" as="targetPoint"/>
                        <Array as="points">
                            <mxPoint x="180" y="40"/>
                            <mxPoint x="180"/>
                            <mxPoint/>
                            <mxPoint y="28"/>
                        </Array>
                    </mxGeometry>
                </mxCell>
                <mxCell id="93" value="Shift Register" style="rounded=1;whiteSpace=wrap;html=1;" parent="84" vertex="1">
                    <mxGeometry x="100" y="10" width="70" height="60" as="geometry"/>
                </mxCell>
                <mxCell id="101" style="edgeStyle=none;rounded=0;html=1;entryX=0.3333333333333333;entryY=1;entryDx=10;entryDy=0;entryPerimeter=0;exitX=0.3333333333333333;exitY=1;exitDx=10;exitDy=0;exitPerimeter=0;fillColor=#a20025;strokeColor=#6F0000;startArrow=classic;startFill=1;" parent="1" source="89" target="79" edge="1">
                    <mxGeometry relative="1" as="geometry">
                        <mxPoint x="530" y="560" as="targetPoint"/>
                        <Array as="points">
                            <mxPoint x="470" y="514"/>
                            <mxPoint x="470" y="434"/>
                        </Array>
                    </mxGeometry>
                </mxCell>
                <mxCell id="102" style="edgeStyle=none;rounded=0;html=1;entryX=0.3333333333333333;entryY=1;entryDx=10;entryDy=0;entryPerimeter=0;exitX=0.3333333333333333;exitY=1;exitDx=10;exitDy=0;exitPerimeter=0;fillColor=#a20025;strokeColor=#6F0000;startArrow=none;startFill=0;" parent="1" edge="1">
                    <mxGeometry relative="1" as="geometry">
                        <mxPoint x="530" y="354" as="targetPoint"/>
                        <mxPoint x="530" y="434" as="sourcePoint"/>
                        <Array as="points">
                            <mxPoint x="470" y="434"/>
                            <mxPoint x="470" y="354"/>
                        </Array>
                    </mxGeometry>
                </mxCell>
                <mxCell id="103" style="edgeStyle=none;rounded=0;html=1;entryX=0.3333333333333333;entryY=1;entryDx=10;entryDy=0;entryPerimeter=0;exitX=0.3333333333333333;exitY=1;exitDx=10;exitDy=0;exitPerimeter=0;fillColor=#a20025;strokeColor=#6F0000;startArrow=none;startFill=0;" parent="1" edge="1">
                    <mxGeometry relative="1" as="geometry">
                        <mxPoint x="530" y="274" as="targetPoint"/>
                        <mxPoint x="530" y="354" as="sourcePoint"/>
                        <Array as="points">
                            <mxPoint x="470" y="354"/>
                            <mxPoint x="470" y="274"/>
                        </Array>
                    </mxGeometry>
                </mxCell>
                <mxCell id="104" style="edgeStyle=none;rounded=0;html=1;entryX=0.3333333333333333;entryY=1;entryDx=10;entryDy=0;entryPerimeter=0;exitX=0.3333333333333333;exitY=1;exitDx=10;exitDy=0;exitPerimeter=0;fillColor=#a20025;strokeColor=#6F0000;startArrow=none;startFill=0;" parent="1" edge="1">
                    <mxGeometry relative="1" as="geometry">
                        <mxPoint x="530" y="194" as="targetPoint"/>
                        <mxPoint x="530" y="274" as="sourcePoint"/>
                        <Array as="points">
                            <mxPoint x="470" y="274"/>
                            <mxPoint x="470" y="194"/>
                        </Array>
                    </mxGeometry>
                </mxCell>
                <mxCell id="105" style="edgeStyle=none;rounded=0;html=1;entryX=0.3333333333333333;entryY=1;entryDx=10;entryDy=0;entryPerimeter=0;exitX=0.3333333333333333;exitY=1;exitDx=10;exitDy=0;exitPerimeter=0;fillColor=#a20025;strokeColor=#6F0000;startArrow=none;startFill=0;" parent="1" edge="1">
                    <mxGeometry relative="1" as="geometry">
                        <mxPoint x="530" y="114" as="targetPoint"/>
                        <mxPoint x="530" y="194" as="sourcePoint"/>
                        <Array as="points">
                            <mxPoint x="470" y="194"/>
                            <mxPoint x="470" y="114"/>
                        </Array>
                    </mxGeometry>
                </mxCell>
                <mxCell id="106" value="" style="endArrow=none;html=1;rounded=0;entryX=0.3333333333333333;entryY=1;entryDx=10;entryDy=0;entryPerimeter=0;exitX=-0.001;exitY=0.334;exitDx=0;exitDy=0;exitPerimeter=0;fillColor=#a20025;strokeColor=#6F0000;" parent="1" source="94" target="49" edge="1">
                    <mxGeometry width="50" height="50" relative="1" as="geometry">
                        <mxPoint x="400" y="290" as="sourcePoint"/>
                        <mxPoint x="450" y="240" as="targetPoint"/>
                    </mxGeometry>
                </mxCell>
                <mxCell id="107" style="edgeStyle=none;rounded=0;html=1;exitX=1;exitY=0.1;exitDx=0;exitDy=0;exitPerimeter=0;entryX=0;entryY=0.5499999999999999;entryDx=0;entryDy=3;entryPerimeter=0;startArrow=none;startFill=0;" parent="1" source="vW4JjazZONKJVkMiwBjb-2" target="26" edge="1">
                    <mxGeometry relative="1" as="geometry"/>
                </mxCell>
                <mxCell id="108" value="Col0" style="edgeLabel;html=1;align=center;verticalAlign=middle;resizable=0;points=[];" parent="107" vertex="1" connectable="0">
                    <mxGeometry x="-0.4152" y="1" relative="1" as="geometry">
                        <mxPoint as="offset"/>
                    </mxGeometry>
                </mxCell>
                <mxCell id="109" style="edgeStyle=none;rounded=0;html=1;exitX=1;exitY=0.1;exitDx=0;exitDy=0;exitPerimeter=0;entryX=0;entryY=0.5499999999999999;entryDx=0;entryDy=3;entryPerimeter=0;startArrow=none;startFill=0;" parent="1" edge="1">
                    <mxGeometry relative="1" as="geometry">
                        <mxPoint x="280" y="170" as="sourcePoint"/>
                        <mxPoint x="500" y="170.2" as="targetPoint"/>
                    </mxGeometry>
                </mxCell>
                <mxCell id="110" value="Col1" style="edgeLabel;html=1;align=center;verticalAlign=middle;resizable=0;points=[];" parent="109" vertex="1" connectable="0">
                    <mxGeometry x="-0.4152" y="1" relative="1" as="geometry">
                        <mxPoint as="offset"/>
                    </mxGeometry>
                </mxCell>
                <mxCell id="111" style="edgeStyle=none;rounded=0;html=1;exitX=1;exitY=0.1;exitDx=0;exitDy=0;exitPerimeter=0;entryX=0;entryY=0.5499999999999999;entryDx=0;entryDy=3;entryPerimeter=0;startArrow=none;startFill=0;" parent="1" edge="1">
                    <mxGeometry relative="1" as="geometry">
                        <mxPoint x="280" y="250" as="sourcePoint"/>
                        <mxPoint x="500" y="250.2" as="targetPoint"/>
                    </mxGeometry>
                </mxCell>
                <mxCell id="112" value="Col2" style="edgeLabel;html=1;align=center;verticalAlign=middle;resizable=0;points=[];" parent="111" vertex="1" connectable="0">
                    <mxGeometry x="-0.4152" y="1" relative="1" as="geometry">
                        <mxPoint as="offset"/>
                    </mxGeometry>
                </mxCell>
                <mxCell id="113" style="edgeStyle=none;rounded=0;html=1;exitX=1;exitY=0.1;exitDx=0;exitDy=0;exitPerimeter=0;entryX=0;entryY=0.5499999999999999;entryDx=0;entryDy=3;entryPerimeter=0;startArrow=none;startFill=0;" parent="1" edge="1">
                    <mxGeometry relative="1" as="geometry">
                        <mxPoint x="280" y="330" as="sourcePoint"/>
                        <mxPoint x="500" y="330.2" as="targetPoint"/>
                    </mxGeometry>
                </mxCell>
                <mxCell id="114" value="Col3" style="edgeLabel;html=1;align=center;verticalAlign=middle;resizable=0;points=[];" parent="113" vertex="1" connectable="0">
                    <mxGeometry x="-0.4152" y="1" relative="1" as="geometry">
                        <mxPoint as="offset"/>
                    </mxGeometry>
                </mxCell>
                <mxCell id="115" style="edgeStyle=none;rounded=0;html=1;exitX=1;exitY=0.1;exitDx=0;exitDy=0;exitPerimeter=0;entryX=0;entryY=0.5499999999999999;entryDx=0;entryDy=3;entryPerimeter=0;startArrow=none;startFill=0;" parent="1" edge="1">
                    <mxGeometry relative="1" as="geometry">
                        <mxPoint x="280" y="410" as="sourcePoint"/>
                        <mxPoint x="500" y="410.2" as="targetPoint"/>
                    </mxGeometry>
                </mxCell>
                <mxCell id="116" value="Col4" style="edgeLabel;html=1;align=center;verticalAlign=middle;resizable=0;points=[];" parent="115" vertex="1" connectable="0">
                    <mxGeometry x="-0.4152" y="1" relative="1" as="geometry">
                        <mxPoint as="offset"/>
                    </mxGeometry>
                </mxCell>
                <mxCell id="117" style="edgeStyle=none;rounded=0;html=1;exitX=1;exitY=0.1;exitDx=0;exitDy=0;exitPerimeter=0;entryX=0;entryY=0.5499999999999999;entryDx=0;entryDy=3;entryPerimeter=0;startArrow=none;startFill=0;" parent="1" edge="1">
                    <mxGeometry relative="1" as="geometry">
                        <mxPoint x="280" y="490" as="sourcePoint"/>
                        <mxPoint x="500" y="490.2" as="targetPoint"/>
                    </mxGeometry>
                </mxCell>
                <mxCell id="118" value="Col5" style="edgeLabel;html=1;align=center;verticalAlign=middle;resizable=0;points=[];" parent="117" vertex="1" connectable="0">
                    <mxGeometry x="-0.4152" y="1" relative="1" as="geometry">
                        <mxPoint as="offset"/>
                    </mxGeometry>
                </mxCell>
                <mxCell id="119" value="" style="endArrow=none;html=1;rounded=0;entryX=0;entryY=0.333;entryDx=0;entryDy=0;entryPerimeter=0;exitX=0.996;exitY=0.304;exitDx=0;exitDy=0;exitPerimeter=0;fillColor=#a20025;strokeColor=#6F0000;" parent="1" source="vW4JjazZONKJVkMiwBjb-2" target="94" edge="1">
                    <mxGeometry width="50" height="50" relative="1" as="geometry">
                        <mxPoint x="370" y="180" as="sourcePoint"/>
                        <mxPoint x="420" y="130" as="targetPoint"/>
                    </mxGeometry>
                </mxCell>
                <mxCell id="120" value="RowN R/W'" style="edgeLabel;html=1;align=center;verticalAlign=middle;resizable=0;points=[];" parent="119" vertex="1" connectable="0">
                    <mxGeometry x="0.1008" relative="1" as="geometry">
                        <mxPoint as="offset"/>
                    </mxGeometry>
                </mxCell>
            </root>
        </mxGraphModel>
    </diagram>
</mxfile>